<svg xmlns="http://www.w3.org/2000/svg" style="display:none">
  <symbol id="i-home" viewBox="0 0 24 24"><path d="M4 10.5 12 4l8 6.5V20a1 1 0 0 1-1 1h-5v-6H10v6H5a1 1 0 0 1-1-1v-9.5z" stroke-linejoin="round" stroke-linecap="round"/></symbol>
  <symbol id="i-drive" viewBox="0 0 24 24"><circle cx="12" cy="12" r="7"/><circle cx="12" cy="12" r="2"/><path d="M12 5v2M12 17v2M5 12h2M17 12h2" stroke-linecap="round"/></symbol>
  <symbol id="i-climate" viewBox="0 0 24 24"><path d="M12 3v18M7 6.5 12 12 17 6.5M7 17.5 12 12l5 5.5" stroke-linecap="round" stroke-linejoin="round"/></symbol>
  <symbol id="i-energy" viewBox="0 0 24 24"><path d="M13 3 6 13h6l-1 8 7-10h-6l1-8z" stroke-linejoin="round" stroke-linecap="round"/></symbol>
  <symbol id="i-safety" viewBox="0 0 24 24"><path d="M12 3 5 6.5v5c0 4.5 3 8 7 9.5 4-1.5 7-5 7-9.5v-5L12 3z" stroke-linejoin="round"/></symbol>
  <symbol id="i-cabin" viewBox="0 0 24 24"><rect x="4" y="7" width="16" height="12" rx="2"/><path d="M8 7V5.5A2.5 2.5 0 0 1 10.5 3h3A2.5 2.5 0 0 1 16 5.5V7" stroke-linecap="round"/></symbol>
  <symbol id="i-camera" viewBox="0 0 24 24"><rect x="3" y="7" width="14" height="11" rx="2"/><path d="M17 10.5 21 8v9l-4-2.5" stroke-linejoin="round"/><circle cx="10" cy="12.5" r="2.5"/></symbol>
  <symbol id="i-system" viewBox="0 0 24 24"><circle cx="12" cy="12" r="3"/><path d="M12 3.5v2.2M12 18.3v2.2M4.9 6.5l1.6 1.6M17.5 17.9l1.6 1.6M3.5 12h2.2M18.3 12h2.2M4.9 17.5l1.6-1.6M17.5 6.1l1.6-1.6" stroke-linecap="round"/></symbol>
  <symbol id="i-lab" viewBox="0 0 24 24"><path d="M9 3h6M10 3v6l-5 9a2 2 0 0 0 1.7 3h10.6a2 2 0 0 0 1.7-3l-5-9V3" stroke-linejoin="round" stroke-linecap="round"/></symbol>
  <symbol id="i-about" viewBox="0 0 24 24"><circle cx="12" cy="12" r="8"/><path d="M12 11v5M12 8h.01" stroke-linecap="round"/></symbol>
  <symbol id="i-store" viewBox="0 0 24 24"><path d="M4 9h16l-1.5 11H5.5L4 9z" stroke-linejoin="round"/><path d="M8 9V7a4 4 0 0 1 8 0v2" stroke-linecap="round"/><path d="M9 13v4M15 13v4" stroke-linecap="round"/></symbol>
  <symbol id="i-pin" viewBox="0 0 24 24"><path d="M12 17v4M8 3h8l-1.5 7H18l-6 7-6-7h3.5L8 3z" stroke-linejoin="round" stroke-linecap="round"/></symbol>
  <symbol id="i-hide" viewBox="0 0 24 24"><path d="M3 3l18 18M10.5 10.7a2 2 0 0 0 2.8 2.8M9.9 5.1A9.8 9.8 0 0 1 12 5c5 0 9 4.5 10 7-.4 1-1.2 2.4-2.5 3.6M6.1 6.1C4.4 7.5 3.3 9.3 3 12c1 2.5 5 7 9 7 1.4 0 2.8-.4 4-.1" stroke-linecap="round" stroke-linejoin="round"/></symbol>
  <symbol id="i-flip" viewBox="0 0 24 24"><path d="M7 7h10v4M17 17H7v-4" stroke-linecap="round" stroke-linejoin="round"/><path d="m14 4 3 3-3 3M10 20l-3-3 3-3" stroke-linecap="round" stroke-linejoin="round"/></symbol>
  <symbol id="i-regen" viewBox="0 0 24 24"><path d="M4 12a8 8 0 0 1 14-5.3M20 12a8 8 0 0 1-14 5.3" stroke-linecap="round"/><path d="M18 4v4h-4M6 20v-4h4" stroke-linecap="round" stroke-linejoin="round"/></symbol>
  <symbol id="i-brake" viewBox="0 0 24 24"><circle cx="12" cy="12" r="8"/><circle cx="12" cy="12" r="4"/><path d="M12 4v2M12 18v2" stroke-linecap="round"/></symbol>
  <symbol id="i-steer" viewBox="0 0 24 24"><circle cx="12" cy="12" r="8"/><path d="M12 12v8M4.5 10h15" stroke-linecap="round"/></symbol>
  <symbol id="i-fan" viewBox="0 0 24 24"><circle cx="12" cy="12" r="2"/><path d="M12 4c2 3 2 5 0 8 2 3 4 4 7 3-3-2-4-4-3-7-3 2-5 2-8 0 3-2 4-4 3-7 2 3 4 4 7 3z" stroke-linejoin="round"/></symbol>
  <symbol id="i-temp" viewBox="0 0 24 24"><path d="M10 14.5V6a2 2 0 1 1 4 0v8.5a3.5 3.5 0 1 1-4 0z" stroke-linejoin="round"/><path d="M12 17.5v0" stroke-linecap="round"/></symbol>
  <symbol id="i-battery" viewBox="0 0 24 24"><rect x="3" y="7" width="16" height="10" rx="2"/><path d="M19 10h2v4h-2M7 10v4M11 10v4" stroke-linecap="round"/></symbol>
  <symbol id="i-charge" viewBox="0 0 24 24"><path d="M13 2 6 13h5l-1 9 8-12h-5l0-8z" stroke-linejoin="round"/></symbol>
  <symbol id="i-adas" viewBox="0 0 24 24"><path d="M4 16c2-4 5-6 8-6s6 2 8 6" stroke-linecap="round"/><circle cx="12" cy="8" r="2"/><path d="M8 19h8" stroke-linecap="round"/></symbol>
  <symbol id="i-lock" viewBox="0 0 24 24"><rect x="5" y="11" width="14" height="10" rx="2"/><path d="M8 11V8a4 4 0 0 1 8 0v3" stroke-linecap="round"/></symbol>
  <symbol id="i-light" viewBox="0 0 24 24"><circle cx="12" cy="12" r="4"/><path d="M12 3v2M12 19v2M4.2 4.2l1.4 1.4M18.4 18.4l1.4 1.4M3 12h2M19 12h2M4.2 19.8l1.4-1.4M18.4 5.6l1.4-1.4" stroke-linecap="round"/></symbol>
  <symbol id="i-hud" viewBox="0 0 24 24"><path d="M4 8h16v4l-3 5H7l-3-5V8z" stroke-linejoin="round"/><path d="M8 8V6h8v2" stroke-linecap="round"/></symbol>
  <symbol id="i-seat" viewBox="0 0 24 24"><path d="M8 4c0 2 1 4 4 4s4-2 4-4" stroke-linecap="round"/><path d="M7 12c0-2 2-3 5-3s5 1 5 3v7H7v-7z" stroke-linejoin="round"/></symbol>
  <symbol id="i-window" viewBox="0 0 24 24"><rect x="4" y="5" width="16" height="14" rx="1"/><path d="M4 12h16" stroke-linecap="round"/></symbol>
  <symbol id="i-usb" viewBox="0 0 24 24"><path d="M12 3v12M12 15l-4 4M12 15l4 4M8 7h8" stroke-linecap="round" stroke-linejoin="round"/></symbol>
  <symbol id="i-sensor" viewBox="0 0 24 24"><circle cx="12" cy="12" r="3"/><path d="M5 12a7 7 0 0 1 7-7M19 12a7 7 0 0 0-7-7M5 12a7 7 0 0 0 7 7M19 12a7 7 0 0 1-7 7" stroke-linecap="round"/></symbol>
  <symbol id="i-plugins" viewBox="0 0 24 24"><path d="M9 3v4M15 3v4M8 7h8v3a4 4 0 0 1-2 3.5V21H10v-7.5A4 4 0 0 1 8 10V7z" stroke-linejoin="round" stroke-linecap="round"/><path d="M7 11H4M20 11h-3" stroke-linecap="round"/></symbol>
</svg>
